<mxfile host="65bd71144e">
    <diagram id="5rk5vfgmYZ5YPAakz9oN" name="Page-1">
        <mxGraphModel dx="559" dy="1460" grid="1" gridSize="10" guides="1" tooltips="1" connect="1" arrows="1" fold="1" page="1" pageScale="1" pageWidth="850" pageHeight="1100" math="0" shadow="0">
            <root>
                <mxCell id="0"/>
                <mxCell id="1" parent="0"/>
                <mxCell id="2" value="" style="endArrow=none;dashed=1;html=1;dashPattern=1 3;strokeWidth=2;" edge="1" parent="1">
                    <mxGeometry width="50" height="50" relative="1" as="geometry">
                        <mxPoint x="469.9677419354839" y="145" as="sourcePoint"/>
                        <mxPoint x="469.5" as="targetPoint"/>
                    </mxGeometry>
                </mxCell>
                <mxCell id="5" value="main" style="text;html=1;align=center;verticalAlign=middle;whiteSpace=wrap;rounded=0;" vertex="1" parent="1">
                    <mxGeometry x="440" y="320" width="60" height="30" as="geometry"/>
                </mxCell>
                <mxCell id="7" value="" style="ellipse;whiteSpace=wrap;html=1;aspect=fixed;" vertex="1" parent="1">
                    <mxGeometry x="460" y="280" width="20" height="20" as="geometry"/>
                </mxCell>
                <mxCell id="8" value="db1f70a" style="text;html=1;align=center;verticalAlign=middle;whiteSpace=wrap;rounded=0;" vertex="1" parent="1">
                    <mxGeometry x="510" y="275" width="60" height="30" as="geometry"/>
                </mxCell>
                <mxCell id="13" value="" style="endArrow=none;dashed=1;html=1;dashPattern=1 3;strokeWidth=2;" edge="1" parent="1" source="22" target="12">
                    <mxGeometry width="50" height="50" relative="1" as="geometry">
                        <mxPoint x="469.5" y="320" as="sourcePoint"/>
                        <mxPoint x="469.5" as="targetPoint"/>
                    </mxGeometry>
                </mxCell>
                <mxCell id="12" value="" style="ellipse;whiteSpace=wrap;html=1;aspect=fixed;" vertex="1" parent="1">
                    <mxGeometry x="460" y="240" width="20" height="20" as="geometry"/>
                </mxCell>
                <mxCell id="14" value="&lt;div style=&quot;text-align: start;&quot;&gt;&lt;span style=&quot;background-color: transparent; font-size: 0px; text-wrap-mode: nowrap;&quot;&gt;&lt;font face=&quot;monospace&quot;&gt;70351d5&lt;/font&gt;&lt;/span&gt;&lt;/div&gt;" style="text;html=1;align=center;verticalAlign=middle;whiteSpace=wrap;rounded=0;" vertex="1" parent="1">
                    <mxGeometry x="510" y="230" width="60" height="30" as="geometry"/>
                </mxCell>
                <mxCell id="15" value="db1f70a" style="text;html=1;align=center;verticalAlign=middle;whiteSpace=wrap;rounded=0;" vertex="1" parent="1">
                    <mxGeometry x="510" y="235" width="60" height="30" as="geometry"/>
                </mxCell>
                <mxCell id="16" value="" style="endArrow=none;dashed=1;html=1;dashPattern=1 3;strokeWidth=2;" edge="1" parent="1" source="29">
                    <mxGeometry width="50" height="50" relative="1" as="geometry">
                        <mxPoint x="600" y="320" as="sourcePoint"/>
                        <mxPoint x="600" as="targetPoint"/>
                    </mxGeometry>
                </mxCell>
                <mxCell id="17" value="feature/login" style="text;html=1;align=center;verticalAlign=middle;whiteSpace=wrap;rounded=0;" vertex="1" parent="1">
                    <mxGeometry x="570" y="320" width="60" height="30" as="geometry"/>
                </mxCell>
                <mxCell id="19" value="" style="endArrow=none;dashed=1;html=1;dashPattern=1 3;strokeWidth=2;" edge="1" parent="1" source="12" target="18">
                    <mxGeometry width="50" height="50" relative="1" as="geometry">
                        <mxPoint x="470" y="240" as="sourcePoint"/>
                        <mxPoint x="469.5" as="targetPoint"/>
                    </mxGeometry>
                </mxCell>
                <mxCell id="20" value="db1f70a" style="text;html=1;align=center;verticalAlign=middle;whiteSpace=wrap;rounded=0;" vertex="1" parent="1">
                    <mxGeometry x="510" y="200" width="60" height="30" as="geometry"/>
                </mxCell>
                <mxCell id="23" value="" style="endArrow=none;dashed=1;html=1;dashPattern=1 3;strokeWidth=2;" edge="1" parent="1" target="22">
                    <mxGeometry width="50" height="50" relative="1" as="geometry">
                        <mxPoint x="469.5" y="320" as="sourcePoint"/>
                        <mxPoint x="470" y="260" as="targetPoint"/>
                    </mxGeometry>
                </mxCell>
                <mxCell id="22" value="Actor" style="shape=umlActor;verticalLabelPosition=bottom;verticalAlign=top;html=1;outlineConnect=0;" vertex="1" parent="1">
                    <mxGeometry x="465" y="275" width="10" height="20" as="geometry"/>
                </mxCell>
                <mxCell id="24" value="" style="endArrow=none;dashed=1;html=1;dashPattern=1 3;strokeWidth=2;exitX=1;exitY=0.5;exitDx=0;exitDy=0;" edge="1" parent="1" source="18">
                    <mxGeometry width="50" height="50" relative="1" as="geometry">
                        <mxPoint x="480" y="190" as="sourcePoint"/>
                        <mxPoint x="600" y="150" as="targetPoint"/>
                    </mxGeometry>
                </mxCell>
                <mxCell id="26" value="" style="endArrow=none;dashed=1;html=1;dashPattern=1 3;strokeWidth=2;" edge="1" parent="1" target="25">
                    <mxGeometry width="50" height="50" relative="1" as="geometry">
                        <mxPoint x="600" y="320" as="sourcePoint"/>
                        <mxPoint x="600" as="targetPoint"/>
                    </mxGeometry>
                </mxCell>
                <mxCell id="25" value="" style="ellipse;whiteSpace=wrap;html=1;aspect=fixed;" vertex="1" parent="1">
                    <mxGeometry x="590" y="140" width="20" height="20" as="geometry"/>
                </mxCell>
                <mxCell id="28" value="" style="endArrow=none;dashed=1;html=1;dashPattern=1 3;strokeWidth=2;" edge="1" parent="1" source="25" target="27">
                    <mxGeometry width="50" height="50" relative="1" as="geometry">
                        <mxPoint x="600" y="140" as="sourcePoint"/>
                        <mxPoint x="600" as="targetPoint"/>
                    </mxGeometry>
                </mxCell>
                <mxCell id="27" value="" style="ellipse;whiteSpace=wrap;html=1;aspect=fixed;" vertex="1" parent="1">
                    <mxGeometry x="590" y="100" width="20" height="20" as="geometry"/>
                </mxCell>
                <mxCell id="30" value="" style="endArrow=none;dashed=1;html=1;dashPattern=1 3;strokeWidth=2;" edge="1" parent="1" source="27" target="29">
                    <mxGeometry width="50" height="50" relative="1" as="geometry">
                        <mxPoint x="600" y="100" as="sourcePoint"/>
                        <mxPoint x="600" as="targetPoint"/>
                    </mxGeometry>
                </mxCell>
                <mxCell id="29" value="" style="ellipse;whiteSpace=wrap;html=1;aspect=fixed;" vertex="1" parent="1">
                    <mxGeometry x="590" y="60" width="20" height="20" as="geometry"/>
                </mxCell>
                <mxCell id="31" value="db1f70a" style="text;html=1;align=center;verticalAlign=middle;whiteSpace=wrap;rounded=0;" vertex="1" parent="1">
                    <mxGeometry x="610" y="135" width="60" height="30" as="geometry"/>
                </mxCell>
                <mxCell id="32" value="db1f70a" style="text;html=1;align=center;verticalAlign=middle;whiteSpace=wrap;rounded=0;" vertex="1" parent="1">
                    <mxGeometry x="620" y="100" width="60" height="30" as="geometry"/>
                </mxCell>
                <mxCell id="33" value="db1f70a" style="text;html=1;align=center;verticalAlign=middle;whiteSpace=wrap;rounded=0;" vertex="1" parent="1">
                    <mxGeometry x="630" y="60" width="60" height="30" as="geometry"/>
                </mxCell>
                <mxCell id="34" value="" style="group" vertex="1" connectable="0" parent="1">
                    <mxGeometry x="460" y="195" width="20" height="25" as="geometry"/>
                </mxCell>
                <mxCell id="18" value="" style="ellipse;whiteSpace=wrap;html=1;aspect=fixed;" vertex="1" parent="34">
                    <mxGeometry y="5" width="20" height="20" as="geometry"/>
                </mxCell>
                <mxCell id="21" value="Actor" style="shape=umlActor;verticalLabelPosition=bottom;verticalAlign=top;html=1;outlineConnect=0;" vertex="1" parent="34">
                    <mxGeometry x="5" width="10" height="20" as="geometry"/>
                </mxCell>
                <mxCell id="40" value="" style="endArrow=none;dashed=1;html=1;dashPattern=1 3;strokeWidth=2;" edge="1" parent="1" source="18">
                    <mxGeometry width="50" height="50" relative="1" as="geometry">
                        <mxPoint x="470" y="200" as="sourcePoint"/>
                        <mxPoint x="470" y="165" as="targetPoint"/>
                    </mxGeometry>
                </mxCell>
                <mxCell id="44" value="" style="endArrow=none;dashed=1;html=1;dashPattern=1 3;strokeWidth=2;" edge="1" parent="1" source="73">
                    <mxGeometry width="50" height="50" relative="1" as="geometry">
                        <mxPoint x="189.5" y="310" as="sourcePoint"/>
                        <mxPoint x="189.5" y="-10" as="targetPoint"/>
                    </mxGeometry>
                </mxCell>
                <mxCell id="45" value="main" style="text;html=1;align=center;verticalAlign=middle;whiteSpace=wrap;rounded=0;" vertex="1" parent="1">
                    <mxGeometry x="160" y="310" width="60" height="30" as="geometry"/>
                </mxCell>
                <mxCell id="46" value="" style="ellipse;whiteSpace=wrap;html=1;aspect=fixed;" vertex="1" parent="1">
                    <mxGeometry x="180" y="270" width="20" height="20" as="geometry"/>
                </mxCell>
                <mxCell id="47" value="db1f70a" style="text;html=1;align=center;verticalAlign=middle;whiteSpace=wrap;rounded=0;" vertex="1" parent="1">
                    <mxGeometry x="230" y="265" width="60" height="30" as="geometry"/>
                </mxCell>
                <mxCell id="48" value="" style="group" vertex="1" connectable="0" parent="1">
                    <mxGeometry x="90" y="100" width="75" height="30" as="geometry"/>
                </mxCell>
                <mxCell id="49" value="" style="shape=step;perimeter=stepPerimeter;whiteSpace=wrap;html=1;fixedSize=1;" vertex="1" parent="48">
                    <mxGeometry width="75" height="30" as="geometry"/>
                </mxCell>
                <mxCell id="50" value="HEAD" style="text;html=1;align=center;verticalAlign=middle;whiteSpace=wrap;rounded=0;" vertex="1" parent="48">
                    <mxGeometry x="15" width="60" height="30" as="geometry"/>
                </mxCell>
                <mxCell id="51" value="" style="endArrow=none;dashed=1;html=1;dashPattern=1 3;strokeWidth=2;" edge="1" parent="1" source="60" target="52">
                    <mxGeometry width="50" height="50" relative="1" as="geometry">
                        <mxPoint x="189.5" y="310" as="sourcePoint"/>
                        <mxPoint x="189.5" y="-10" as="targetPoint"/>
                    </mxGeometry>
                </mxCell>
                <mxCell id="52" value="" style="ellipse;whiteSpace=wrap;html=1;aspect=fixed;" vertex="1" parent="1">
                    <mxGeometry x="180" y="230" width="20" height="20" as="geometry"/>
                </mxCell>
                <mxCell id="53" value="&lt;div style=&quot;text-align: start;&quot;&gt;&lt;span style=&quot;background-color: transparent; font-size: 0px; text-wrap-mode: nowrap;&quot;&gt;&lt;font face=&quot;monospace&quot;&gt;70351d5&lt;/font&gt;&lt;/span&gt;&lt;/div&gt;" style="text;html=1;align=center;verticalAlign=middle;whiteSpace=wrap;rounded=0;" vertex="1" parent="1">
                    <mxGeometry x="230" y="220" width="60" height="30" as="geometry"/>
                </mxCell>
                <mxCell id="54" value="db1f70a" style="text;html=1;align=center;verticalAlign=middle;whiteSpace=wrap;rounded=0;" vertex="1" parent="1">
                    <mxGeometry x="230" y="225" width="60" height="30" as="geometry"/>
                </mxCell>
                <mxCell id="57" value="" style="endArrow=none;dashed=1;html=1;dashPattern=1 3;strokeWidth=2;" edge="1" parent="1" source="52" target="71">
                    <mxGeometry width="50" height="50" relative="1" as="geometry">
                        <mxPoint x="190" y="230" as="sourcePoint"/>
                        <mxPoint x="189.5" y="-10" as="targetPoint"/>
                    </mxGeometry>
                </mxCell>
                <mxCell id="58" value="db1f70a" style="text;html=1;align=center;verticalAlign=middle;whiteSpace=wrap;rounded=0;" vertex="1" parent="1">
                    <mxGeometry x="230" y="190" width="60" height="30" as="geometry"/>
                </mxCell>
                <mxCell id="59" value="" style="endArrow=none;dashed=1;html=1;dashPattern=1 3;strokeWidth=2;" edge="1" parent="1" target="60">
                    <mxGeometry width="50" height="50" relative="1" as="geometry">
                        <mxPoint x="189.5" y="310" as="sourcePoint"/>
                        <mxPoint x="190" y="250" as="targetPoint"/>
                    </mxGeometry>
                </mxCell>
                <mxCell id="60" value="Actor" style="shape=umlActor;verticalLabelPosition=bottom;verticalAlign=top;html=1;outlineConnect=0;" vertex="1" parent="1">
                    <mxGeometry x="185" y="265" width="10" height="20" as="geometry"/>
                </mxCell>
                <mxCell id="70" value="" style="group" vertex="1" connectable="0" parent="1">
                    <mxGeometry x="180" y="185" width="20" height="25" as="geometry"/>
                </mxCell>
                <mxCell id="71" value="" style="ellipse;whiteSpace=wrap;html=1;aspect=fixed;" vertex="1" parent="70">
                    <mxGeometry y="5" width="20" height="20" as="geometry"/>
                </mxCell>
                <mxCell id="72" value="Actor" style="shape=umlActor;verticalLabelPosition=bottom;verticalAlign=top;html=1;outlineConnect=0;" vertex="1" parent="70">
                    <mxGeometry x="5" width="10" height="20" as="geometry"/>
                </mxCell>
                <mxCell id="73" value="Actor" style="shape=umlActor;verticalLabelPosition=bottom;verticalAlign=top;html=1;outlineConnect=0;" vertex="1" parent="1">
                    <mxGeometry x="185" y="135" width="10" height="20" as="geometry"/>
                </mxCell>
                <mxCell id="74" value="" style="endArrow=none;dashed=1;html=1;dashPattern=1 3;strokeWidth=2;" edge="1" parent="1" source="71" target="73">
                    <mxGeometry width="50" height="50" relative="1" as="geometry">
                        <mxPoint x="190" y="190" as="sourcePoint"/>
                        <mxPoint x="189.5" y="-10" as="targetPoint"/>
                    </mxGeometry>
                </mxCell>
                <mxCell id="75" value="db1f70a" style="text;html=1;align=center;verticalAlign=middle;whiteSpace=wrap;rounded=0;" vertex="1" parent="1">
                    <mxGeometry x="220" y="150" width="60" height="30" as="geometry"/>
                </mxCell>
                <mxCell id="76" value="Actor" style="shape=umlActor;verticalLabelPosition=bottom;verticalAlign=top;html=1;outlineConnect=0;" vertex="1" parent="1">
                    <mxGeometry x="185" y="90" width="10" height="20" as="geometry"/>
                </mxCell>
                <mxCell id="77" value="db1f70a" style="text;html=1;align=center;verticalAlign=middle;whiteSpace=wrap;rounded=0;" vertex="1" parent="1">
                    <mxGeometry x="220" y="100" width="60" height="30" as="geometry"/>
                </mxCell>
                <mxCell id="78" value="" style="group" vertex="1" connectable="0" parent="1">
                    <mxGeometry x="380" y="190" width="75" height="30" as="geometry"/>
                </mxCell>
                <mxCell id="9" value="" style="shape=step;perimeter=stepPerimeter;whiteSpace=wrap;html=1;fixedSize=1;" vertex="1" parent="78">
                    <mxGeometry width="75" height="30" as="geometry"/>
                </mxCell>
                <mxCell id="10" value="HEAD" style="text;html=1;align=center;verticalAlign=middle;whiteSpace=wrap;rounded=0;" vertex="1" parent="78">
                    <mxGeometry x="15" width="60" height="30" as="geometry"/>
                </mxCell>
            </root>
        </mxGraphModel>
    </diagram>
    <diagram id="qsFS_8iUcWvExCIQQh6_" name="Page-2">
        <mxGraphModel dx="559" dy="360" grid="1" gridSize="10" guides="1" tooltips="1" connect="1" arrows="1" fold="1" page="1" pageScale="1" pageWidth="850" pageHeight="1100" math="0" shadow="0">
            <root>
                <mxCell id="0"/>
                <mxCell id="1" parent="0"/>
                <mxCell id="CtHZYmf3CFIvLVXouJKu-1" value="" style="endArrow=none;dashed=1;html=1;dashPattern=1 3;strokeWidth=2;" edge="1" parent="1" source="CtHZYmf3CFIvLVXouJKu-10">
                    <mxGeometry width="50" height="50" relative="1" as="geometry">
                        <mxPoint x="120" y="320" as="sourcePoint"/>
                        <mxPoint x="120" y="30" as="targetPoint"/>
                    </mxGeometry>
                </mxCell>
                <mxCell id="CtHZYmf3CFIvLVXouJKu-2" value="" style="endArrow=none;dashed=1;html=1;dashPattern=1 3;strokeWidth=2;" edge="1" parent="1">
                    <mxGeometry width="50" height="50" relative="1" as="geometry">
                        <mxPoint x="240" y="320" as="sourcePoint"/>
                        <mxPoint x="240" y="30" as="targetPoint"/>
                    </mxGeometry>
                </mxCell>
                <mxCell id="CtHZYmf3CFIvLVXouJKu-4" value="Working Directory" style="text;html=1;align=center;verticalAlign=middle;whiteSpace=wrap;rounded=0;" vertex="1" parent="1">
                    <mxGeometry x="30" y="20" width="60" height="30" as="geometry"/>
                </mxCell>
                <mxCell id="CtHZYmf3CFIvLVXouJKu-5" value="Staging Area" style="text;html=1;align=center;verticalAlign=middle;whiteSpace=wrap;rounded=0;" vertex="1" parent="1">
                    <mxGeometry x="140" y="20" width="60" height="30" as="geometry"/>
                </mxCell>
                <mxCell id="CtHZYmf3CFIvLVXouJKu-6" value="Local Repository" style="text;html=1;align=center;verticalAlign=middle;whiteSpace=wrap;rounded=0;" vertex="1" parent="1">
                    <mxGeometry x="260" y="20" width="60" height="30" as="geometry"/>
                </mxCell>
                <mxCell id="CtHZYmf3CFIvLVXouJKu-7" value="" style="shape=trapezoid;perimeter=trapezoidPerimeter;whiteSpace=wrap;html=1;fixedSize=1;" vertex="1" parent="1">
                    <mxGeometry x="20" y="270" width="70" height="30" as="geometry"/>
                </mxCell>
                <mxCell id="CtHZYmf3CFIvLVXouJKu-8" value="" style="rhombus;whiteSpace=wrap;html=1;" vertex="1" parent="1">
                    <mxGeometry x="142.5" y="210" width="55" height="50" as="geometry"/>
                </mxCell>
                <mxCell id="CtHZYmf3CFIvLVXouJKu-9" value="" style="ellipse;shape=cloud;whiteSpace=wrap;html=1;" vertex="1" parent="1">
                    <mxGeometry x="135" y="260" width="70" height="50" as="geometry"/>
                </mxCell>
                <mxCell id="CtHZYmf3CFIvLVXouJKu-11" value="" style="endArrow=none;dashed=1;html=1;dashPattern=1 3;strokeWidth=2;" edge="1" parent="1" target="CtHZYmf3CFIvLVXouJKu-10">
                    <mxGeometry width="50" height="50" relative="1" as="geometry">
                        <mxPoint x="120" y="320" as="sourcePoint"/>
                        <mxPoint x="120" y="30" as="targetPoint"/>
                    </mxGeometry>
                </mxCell>
                <mxCell id="CtHZYmf3CFIvLVXouJKu-10" value="git add ." style="text;html=1;align=center;verticalAlign=middle;whiteSpace=wrap;rounded=0;" vertex="1" parent="1">
                    <mxGeometry x="90" y="70" width="60" height="30" as="geometry"/>
                </mxCell>
                <mxCell id="CtHZYmf3CFIvLVXouJKu-12" value="" style="endArrow=classic;html=1;" edge="1" parent="1">
                    <mxGeometry width="50" height="50" relative="1" as="geometry">
                        <mxPoint x="60" y="110" as="sourcePoint"/>
                        <mxPoint x="180" y="110" as="targetPoint"/>
                    </mxGeometry>
                </mxCell>
                <mxCell id="CtHZYmf3CFIvLVXouJKu-13" value="git commit" style="text;html=1;align=center;verticalAlign=middle;whiteSpace=wrap;rounded=0;" vertex="1" parent="1">
                    <mxGeometry x="210" y="70" width="60" height="30" as="geometry"/>
                </mxCell>
                <mxCell id="CtHZYmf3CFIvLVXouJKu-14" value="" style="endArrow=classic;html=1;" edge="1" parent="1" target="CtHZYmf3CFIvLVXouJKu-15">
                    <mxGeometry width="50" height="50" relative="1" as="geometry">
                        <mxPoint x="200" y="110" as="sourcePoint"/>
                        <mxPoint x="320" y="110" as="targetPoint"/>
                    </mxGeometry>
                </mxCell>
                <mxCell id="CtHZYmf3CFIvLVXouJKu-15" value="" style="ellipse;whiteSpace=wrap;html=1;aspect=fixed;" vertex="1" parent="1">
                    <mxGeometry x="280" y="90" width="30" height="30" as="geometry"/>
                </mxCell>
                <mxCell id="4wLg_PXRpibNId9F3fkS-2" value="" style="endArrow=classic;html=1;" edge="1" parent="1">
                    <mxGeometry width="50" height="50" relative="1" as="geometry">
                        <mxPoint x="150" y="180" as="sourcePoint"/>
                        <mxPoint x="50" y="180" as="targetPoint"/>
                    </mxGeometry>
                </mxCell>
                <mxCell id="4wLg_PXRpibNId9F3fkS-3" value="" style="endArrow=classic;html=1;" edge="1" parent="1">
                    <mxGeometry width="50" height="50" relative="1" as="geometry">
                        <mxPoint x="300" y="180" as="sourcePoint"/>
                        <mxPoint x="190" y="180" as="targetPoint"/>
                    </mxGeometry>
                </mxCell>
                <mxCell id="4wLg_PXRpibNId9F3fkS-4" value="LOCAL" style="text;html=1;align=center;verticalAlign=middle;whiteSpace=wrap;rounded=0;" vertex="1" parent="1">
                    <mxGeometry x="137.5" y="330" width="60" height="30" as="geometry"/>
                </mxCell>
                <mxCell id="4wLg_PXRpibNId9F3fkS-6" value="" style="shape=flexArrow;endArrow=classic;startArrow=classic;html=1;" edge="1" parent="1" source="4wLg_PXRpibNId9F3fkS-8">
                    <mxGeometry width="100" height="100" relative="1" as="geometry">
                        <mxPoint x="370" y="360" as="sourcePoint"/>
                        <mxPoint x="370" y="10" as="targetPoint"/>
                    </mxGeometry>
                </mxCell>
                <mxCell id="4wLg_PXRpibNId9F3fkS-7" value="REMOTO" style="text;html=1;align=center;verticalAlign=middle;whiteSpace=wrap;rounded=0;" vertex="1" parent="1">
                    <mxGeometry x="450" y="330" width="60" height="30" as="geometry"/>
                </mxCell>
                <mxCell id="4wLg_PXRpibNId9F3fkS-9" value="" style="shape=flexArrow;endArrow=classic;startArrow=classic;html=1;" edge="1" parent="1" source="s6TCTWgDu0iUzyinG4fT-2" target="4wLg_PXRpibNId9F3fkS-8">
                    <mxGeometry width="100" height="100" relative="1" as="geometry">
                        <mxPoint x="370" y="360" as="sourcePoint"/>
                        <mxPoint x="370" y="10" as="targetPoint"/>
                    </mxGeometry>
                </mxCell>
                <mxCell id="4wLg_PXRpibNId9F3fkS-8" value="git push&amp;nbsp;" style="text;html=1;align=center;verticalAlign=middle;whiteSpace=wrap;rounded=0;" vertex="1" parent="1">
                    <mxGeometry x="340" y="80" width="60" height="30" as="geometry"/>
                </mxCell>
                <mxCell id="4wLg_PXRpibNId9F3fkS-10" value="" style="endArrow=classic;html=1;" edge="1" parent="1" target="4wLg_PXRpibNId9F3fkS-11">
                    <mxGeometry width="50" height="50" relative="1" as="geometry">
                        <mxPoint x="380" y="110" as="sourcePoint"/>
                        <mxPoint x="500" y="110" as="targetPoint"/>
                    </mxGeometry>
                </mxCell>
                <mxCell id="4wLg_PXRpibNId9F3fkS-11" value="" style="ellipse;whiteSpace=wrap;html=1;aspect=fixed;" vertex="1" parent="1">
                    <mxGeometry x="460" y="90" width="30" height="30" as="geometry"/>
                </mxCell>
                <mxCell id="s6TCTWgDu0iUzyinG4fT-1" value="" style="ellipse;whiteSpace=wrap;html=1;aspect=fixed;" vertex="1" parent="1">
                    <mxGeometry x="450" y="170" width="30" height="30" as="geometry"/>
                </mxCell>
                <mxCell id="s6TCTWgDu0iUzyinG4fT-3" value="" style="shape=flexArrow;endArrow=classic;startArrow=classic;html=1;" edge="1" parent="1" target="s6TCTWgDu0iUzyinG4fT-2">
                    <mxGeometry width="100" height="100" relative="1" as="geometry">
                        <mxPoint x="370" y="360" as="sourcePoint"/>
                        <mxPoint x="370" y="110" as="targetPoint"/>
                    </mxGeometry>
                </mxCell>
                <mxCell id="s6TCTWgDu0iUzyinG4fT-2" value="git pull" style="text;html=1;align=center;verticalAlign=middle;whiteSpace=wrap;rounded=0;" vertex="1" parent="1">
                    <mxGeometry x="340" y="160" width="60" height="30" as="geometry"/>
                </mxCell>
                <mxCell id="s6TCTWgDu0iUzyinG4fT-4" value="" style="endArrow=classic;html=1;" edge="1" parent="1">
                    <mxGeometry width="50" height="50" relative="1" as="geometry">
                        <mxPoint x="450" y="184.5" as="sourcePoint"/>
                        <mxPoint x="340" y="184.5" as="targetPoint"/>
                    </mxGeometry>
                </mxCell>
                <mxCell id="s6TCTWgDu0iUzyinG4fT-5" value="GIT FLOW" style="text;html=1;align=center;verticalAlign=middle;whiteSpace=wrap;rounded=0;" vertex="1" parent="1">
                    <mxGeometry x="220" y="350" width="60" height="30" as="geometry"/>
                </mxCell>
            </root>
        </mxGraphModel>
    </diagram>
    <diagram id="u7GNU5-1HOBO54CEd2Kj" name="Page-3">
        <mxGraphModel dx="321" dy="1460" grid="1" gridSize="10" guides="1" tooltips="1" connect="1" arrows="1" fold="1" page="1" pageScale="1" pageWidth="850" pageHeight="1100" math="0" shadow="0">
            <root>
                <mxCell id="0"/>
                <mxCell id="1" parent="0"/>
                <mxCell id="4Z4fozLCSit868BE9nKC-1" value="" style="endArrow=none;dashed=1;html=1;dashPattern=1 3;strokeWidth=2;" edge="1" parent="1" source="4Z4fozLCSit868BE9nKC-56">
                    <mxGeometry width="50" height="50" relative="1" as="geometry">
                        <mxPoint x="469.9677419354839" y="145" as="sourcePoint"/>
                        <mxPoint x="469.5" as="targetPoint"/>
                    </mxGeometry>
                </mxCell>
                <mxCell id="4Z4fozLCSit868BE9nKC-2" value="main" style="text;html=1;align=center;verticalAlign=middle;whiteSpace=wrap;rounded=0;" vertex="1" parent="1">
                    <mxGeometry x="440" y="320" width="60" height="30" as="geometry"/>
                </mxCell>
                <mxCell id="4Z4fozLCSit868BE9nKC-3" value="" style="ellipse;whiteSpace=wrap;html=1;aspect=fixed;" vertex="1" parent="1">
                    <mxGeometry x="460" y="280" width="20" height="20" as="geometry"/>
                </mxCell>
                <mxCell id="4Z4fozLCSit868BE9nKC-4" value="db1f70a" style="text;html=1;align=center;verticalAlign=middle;whiteSpace=wrap;rounded=0;" vertex="1" parent="1">
                    <mxGeometry x="510" y="275" width="60" height="30" as="geometry"/>
                </mxCell>
                <mxCell id="4Z4fozLCSit868BE9nKC-5" value="" style="endArrow=none;dashed=1;html=1;dashPattern=1 3;strokeWidth=2;" edge="1" parent="1" source="4Z4fozLCSit868BE9nKC-14" target="4Z4fozLCSit868BE9nKC-6">
                    <mxGeometry width="50" height="50" relative="1" as="geometry">
                        <mxPoint x="469.5" y="320" as="sourcePoint"/>
                        <mxPoint x="469.5" as="targetPoint"/>
                    </mxGeometry>
                </mxCell>
                <mxCell id="4Z4fozLCSit868BE9nKC-6" value="" style="ellipse;whiteSpace=wrap;html=1;aspect=fixed;" vertex="1" parent="1">
                    <mxGeometry x="460" y="240" width="20" height="20" as="geometry"/>
                </mxCell>
                <mxCell id="4Z4fozLCSit868BE9nKC-7" value="&lt;div style=&quot;text-align: start;&quot;&gt;&lt;span style=&quot;background-color: transparent; font-size: 0px; text-wrap-mode: nowrap;&quot;&gt;&lt;font face=&quot;monospace&quot;&gt;70351d5&lt;/font&gt;&lt;/span&gt;&lt;/div&gt;" style="text;html=1;align=center;verticalAlign=middle;whiteSpace=wrap;rounded=0;" vertex="1" parent="1">
                    <mxGeometry x="510" y="230" width="60" height="30" as="geometry"/>
                </mxCell>
                <mxCell id="4Z4fozLCSit868BE9nKC-8" value="db1f70a" style="text;html=1;align=center;verticalAlign=middle;whiteSpace=wrap;rounded=0;" vertex="1" parent="1">
                    <mxGeometry x="510" y="235" width="60" height="30" as="geometry"/>
                </mxCell>
                <mxCell id="4Z4fozLCSit868BE9nKC-9" value="" style="endArrow=none;dashed=1;html=1;dashPattern=1 3;strokeWidth=2;" edge="1" parent="1" source="4Z4fozLCSit868BE9nKC-21">
                    <mxGeometry width="50" height="50" relative="1" as="geometry">
                        <mxPoint x="600" y="320" as="sourcePoint"/>
                        <mxPoint x="600" as="targetPoint"/>
                    </mxGeometry>
                </mxCell>
                <mxCell id="4Z4fozLCSit868BE9nKC-10" value="feature/login" style="text;html=1;align=center;verticalAlign=middle;whiteSpace=wrap;rounded=0;" vertex="1" parent="1">
                    <mxGeometry x="570" y="320" width="60" height="30" as="geometry"/>
                </mxCell>
                <mxCell id="4Z4fozLCSit868BE9nKC-11" value="" style="endArrow=none;dashed=1;html=1;dashPattern=1 3;strokeWidth=2;" edge="1" parent="1" source="4Z4fozLCSit868BE9nKC-6" target="4Z4fozLCSit868BE9nKC-26">
                    <mxGeometry width="50" height="50" relative="1" as="geometry">
                        <mxPoint x="470" y="240" as="sourcePoint"/>
                        <mxPoint x="469.5" as="targetPoint"/>
                    </mxGeometry>
                </mxCell>
                <mxCell id="4Z4fozLCSit868BE9nKC-12" value="db1f70a" style="text;html=1;align=center;verticalAlign=middle;whiteSpace=wrap;rounded=0;" vertex="1" parent="1">
                    <mxGeometry x="510" y="200" width="60" height="30" as="geometry"/>
                </mxCell>
                <mxCell id="4Z4fozLCSit868BE9nKC-13" value="" style="endArrow=none;dashed=1;html=1;dashPattern=1 3;strokeWidth=2;" edge="1" parent="1" target="4Z4fozLCSit868BE9nKC-14">
                    <mxGeometry width="50" height="50" relative="1" as="geometry">
                        <mxPoint x="469.5" y="320" as="sourcePoint"/>
                        <mxPoint x="470" y="260" as="targetPoint"/>
                    </mxGeometry>
                </mxCell>
                <mxCell id="4Z4fozLCSit868BE9nKC-14" value="Actor" style="shape=umlActor;verticalLabelPosition=bottom;verticalAlign=top;html=1;outlineConnect=0;" vertex="1" parent="1">
                    <mxGeometry x="465" y="275" width="10" height="20" as="geometry"/>
                </mxCell>
                <mxCell id="4Z4fozLCSit868BE9nKC-15" value="" style="endArrow=none;dashed=1;html=1;dashPattern=1 3;strokeWidth=2;exitX=1;exitY=0.5;exitDx=0;exitDy=0;" edge="1" parent="1" source="4Z4fozLCSit868BE9nKC-26">
                    <mxGeometry width="50" height="50" relative="1" as="geometry">
                        <mxPoint x="480" y="190" as="sourcePoint"/>
                        <mxPoint x="600" y="150" as="targetPoint"/>
                    </mxGeometry>
                </mxCell>
                <mxCell id="4Z4fozLCSit868BE9nKC-16" value="" style="endArrow=none;dashed=1;html=1;dashPattern=1 3;strokeWidth=2;" edge="1" parent="1" target="4Z4fozLCSit868BE9nKC-17">
                    <mxGeometry width="50" height="50" relative="1" as="geometry">
                        <mxPoint x="600" y="320" as="sourcePoint"/>
                        <mxPoint x="600" as="targetPoint"/>
                    </mxGeometry>
                </mxCell>
                <mxCell id="4Z4fozLCSit868BE9nKC-17" value="" style="ellipse;whiteSpace=wrap;html=1;aspect=fixed;" vertex="1" parent="1">
                    <mxGeometry x="590" y="140" width="20" height="20" as="geometry"/>
                </mxCell>
                <mxCell id="4Z4fozLCSit868BE9nKC-18" value="" style="endArrow=none;dashed=1;html=1;dashPattern=1 3;strokeWidth=2;" edge="1" parent="1" source="4Z4fozLCSit868BE9nKC-17" target="4Z4fozLCSit868BE9nKC-19">
                    <mxGeometry width="50" height="50" relative="1" as="geometry">
                        <mxPoint x="600" y="140" as="sourcePoint"/>
                        <mxPoint x="600" as="targetPoint"/>
                    </mxGeometry>
                </mxCell>
                <mxCell id="4Z4fozLCSit868BE9nKC-19" value="" style="ellipse;whiteSpace=wrap;html=1;aspect=fixed;" vertex="1" parent="1">
                    <mxGeometry x="590" y="100" width="20" height="20" as="geometry"/>
                </mxCell>
                <mxCell id="4Z4fozLCSit868BE9nKC-20" value="" style="endArrow=none;dashed=1;html=1;dashPattern=1 3;strokeWidth=2;" edge="1" parent="1" source="4Z4fozLCSit868BE9nKC-19" target="4Z4fozLCSit868BE9nKC-21">
                    <mxGeometry width="50" height="50" relative="1" as="geometry">
                        <mxPoint x="600" y="100" as="sourcePoint"/>
                        <mxPoint x="600" as="targetPoint"/>
                    </mxGeometry>
                </mxCell>
                <mxCell id="4Z4fozLCSit868BE9nKC-21" value="" style="ellipse;whiteSpace=wrap;html=1;aspect=fixed;" vertex="1" parent="1">
                    <mxGeometry x="590" y="60" width="20" height="20" as="geometry"/>
                </mxCell>
                <mxCell id="4Z4fozLCSit868BE9nKC-22" value="db1f70a" style="text;html=1;align=center;verticalAlign=middle;whiteSpace=wrap;rounded=0;" vertex="1" parent="1">
                    <mxGeometry x="610" y="135" width="60" height="30" as="geometry"/>
                </mxCell>
                <mxCell id="4Z4fozLCSit868BE9nKC-23" value="db1f70a" style="text;html=1;align=center;verticalAlign=middle;whiteSpace=wrap;rounded=0;" vertex="1" parent="1">
                    <mxGeometry x="620" y="100" width="60" height="30" as="geometry"/>
                </mxCell>
                <mxCell id="4Z4fozLCSit868BE9nKC-24" value="db1f70a" style="text;html=1;align=center;verticalAlign=middle;whiteSpace=wrap;rounded=0;" vertex="1" parent="1">
                    <mxGeometry x="630" y="60" width="60" height="30" as="geometry"/>
                </mxCell>
                <mxCell id="4Z4fozLCSit868BE9nKC-25" value="" style="group" vertex="1" connectable="0" parent="1">
                    <mxGeometry x="460" y="195" width="20" height="25" as="geometry"/>
                </mxCell>
                <mxCell id="4Z4fozLCSit868BE9nKC-26" value="" style="ellipse;whiteSpace=wrap;html=1;aspect=fixed;" vertex="1" parent="4Z4fozLCSit868BE9nKC-25">
                    <mxGeometry y="5" width="20" height="20" as="geometry"/>
                </mxCell>
                <mxCell id="4Z4fozLCSit868BE9nKC-27" value="Actor" style="shape=umlActor;verticalLabelPosition=bottom;verticalAlign=top;html=1;outlineConnect=0;" vertex="1" parent="4Z4fozLCSit868BE9nKC-25">
                    <mxGeometry x="5" width="10" height="20" as="geometry"/>
                </mxCell>
                <mxCell id="4Z4fozLCSit868BE9nKC-28" value="" style="endArrow=none;dashed=1;html=1;dashPattern=1 3;strokeWidth=2;" edge="1" parent="1" source="4Z4fozLCSit868BE9nKC-26">
                    <mxGeometry width="50" height="50" relative="1" as="geometry">
                        <mxPoint x="470" y="200" as="sourcePoint"/>
                        <mxPoint x="470" y="165" as="targetPoint"/>
                    </mxGeometry>
                </mxCell>
                <mxCell id="4Z4fozLCSit868BE9nKC-29" value="" style="endArrow=none;dashed=1;html=1;dashPattern=1 3;strokeWidth=2;" edge="1" parent="1" source="4Z4fozLCSit868BE9nKC-47">
                    <mxGeometry width="50" height="50" relative="1" as="geometry">
                        <mxPoint x="189.5" y="310" as="sourcePoint"/>
                        <mxPoint x="189.5" y="-10" as="targetPoint"/>
                    </mxGeometry>
                </mxCell>
                <mxCell id="4Z4fozLCSit868BE9nKC-30" value="main" style="text;html=1;align=center;verticalAlign=middle;whiteSpace=wrap;rounded=0;" vertex="1" parent="1">
                    <mxGeometry x="160" y="310" width="60" height="30" as="geometry"/>
                </mxCell>
                <mxCell id="4Z4fozLCSit868BE9nKC-31" value="" style="ellipse;whiteSpace=wrap;html=1;aspect=fixed;" vertex="1" parent="1">
                    <mxGeometry x="180" y="270" width="20" height="20" as="geometry"/>
                </mxCell>
                <mxCell id="4Z4fozLCSit868BE9nKC-32" value="db1f70a" style="text;html=1;align=center;verticalAlign=middle;whiteSpace=wrap;rounded=0;" vertex="1" parent="1">
                    <mxGeometry x="230" y="265" width="60" height="30" as="geometry"/>
                </mxCell>
                <mxCell id="4Z4fozLCSit868BE9nKC-33" value="" style="group" vertex="1" connectable="0" parent="1">
                    <mxGeometry x="90" y="100" width="75" height="30" as="geometry"/>
                </mxCell>
                <mxCell id="4Z4fozLCSit868BE9nKC-34" value="" style="shape=step;perimeter=stepPerimeter;whiteSpace=wrap;html=1;fixedSize=1;" vertex="1" parent="4Z4fozLCSit868BE9nKC-33">
                    <mxGeometry width="75" height="30" as="geometry"/>
                </mxCell>
                <mxCell id="4Z4fozLCSit868BE9nKC-35" value="HEAD" style="text;html=1;align=center;verticalAlign=middle;whiteSpace=wrap;rounded=0;" vertex="1" parent="4Z4fozLCSit868BE9nKC-33">
                    <mxGeometry x="15" width="60" height="30" as="geometry"/>
                </mxCell>
                <mxCell id="4Z4fozLCSit868BE9nKC-36" value="" style="endArrow=none;dashed=1;html=1;dashPattern=1 3;strokeWidth=2;" edge="1" parent="1" source="4Z4fozLCSit868BE9nKC-43" target="4Z4fozLCSit868BE9nKC-37">
                    <mxGeometry width="50" height="50" relative="1" as="geometry">
                        <mxPoint x="189.5" y="310" as="sourcePoint"/>
                        <mxPoint x="189.5" y="-10" as="targetPoint"/>
                    </mxGeometry>
                </mxCell>
                <mxCell id="4Z4fozLCSit868BE9nKC-37" value="" style="ellipse;whiteSpace=wrap;html=1;aspect=fixed;" vertex="1" parent="1">
                    <mxGeometry x="180" y="230" width="20" height="20" as="geometry"/>
                </mxCell>
                <mxCell id="4Z4fozLCSit868BE9nKC-38" value="&lt;div style=&quot;text-align: start;&quot;&gt;&lt;span style=&quot;background-color: transparent; font-size: 0px; text-wrap-mode: nowrap;&quot;&gt;&lt;font face=&quot;monospace&quot;&gt;70351d5&lt;/font&gt;&lt;/span&gt;&lt;/div&gt;" style="text;html=1;align=center;verticalAlign=middle;whiteSpace=wrap;rounded=0;" vertex="1" parent="1">
                    <mxGeometry x="230" y="220" width="60" height="30" as="geometry"/>
                </mxCell>
                <mxCell id="4Z4fozLCSit868BE9nKC-39" value="db1f70a" style="text;html=1;align=center;verticalAlign=middle;whiteSpace=wrap;rounded=0;" vertex="1" parent="1">
                    <mxGeometry x="230" y="225" width="60" height="30" as="geometry"/>
                </mxCell>
                <mxCell id="4Z4fozLCSit868BE9nKC-40" value="" style="endArrow=none;dashed=1;html=1;dashPattern=1 3;strokeWidth=2;" edge="1" parent="1" source="4Z4fozLCSit868BE9nKC-37" target="4Z4fozLCSit868BE9nKC-45">
                    <mxGeometry width="50" height="50" relative="1" as="geometry">
                        <mxPoint x="190" y="230" as="sourcePoint"/>
                        <mxPoint x="189.5" y="-10" as="targetPoint"/>
                    </mxGeometry>
                </mxCell>
                <mxCell id="4Z4fozLCSit868BE9nKC-41" value="db1f70a" style="text;html=1;align=center;verticalAlign=middle;whiteSpace=wrap;rounded=0;" vertex="1" parent="1">
                    <mxGeometry x="230" y="190" width="60" height="30" as="geometry"/>
                </mxCell>
                <mxCell id="4Z4fozLCSit868BE9nKC-42" value="" style="endArrow=none;dashed=1;html=1;dashPattern=1 3;strokeWidth=2;" edge="1" parent="1" target="4Z4fozLCSit868BE9nKC-43">
                    <mxGeometry width="50" height="50" relative="1" as="geometry">
                        <mxPoint x="189.5" y="310" as="sourcePoint"/>
                        <mxPoint x="190" y="250" as="targetPoint"/>
                    </mxGeometry>
                </mxCell>
                <mxCell id="4Z4fozLCSit868BE9nKC-43" value="Actor" style="shape=umlActor;verticalLabelPosition=bottom;verticalAlign=top;html=1;outlineConnect=0;" vertex="1" parent="1">
                    <mxGeometry x="185" y="265" width="10" height="20" as="geometry"/>
                </mxCell>
                <mxCell id="4Z4fozLCSit868BE9nKC-44" value="" style="group" vertex="1" connectable="0" parent="1">
                    <mxGeometry x="180" y="185" width="20" height="25" as="geometry"/>
                </mxCell>
                <mxCell id="4Z4fozLCSit868BE9nKC-45" value="" style="ellipse;whiteSpace=wrap;html=1;aspect=fixed;" vertex="1" parent="4Z4fozLCSit868BE9nKC-44">
                    <mxGeometry y="5" width="20" height="20" as="geometry"/>
                </mxCell>
                <mxCell id="4Z4fozLCSit868BE9nKC-46" value="Actor" style="shape=umlActor;verticalLabelPosition=bottom;verticalAlign=top;html=1;outlineConnect=0;" vertex="1" parent="4Z4fozLCSit868BE9nKC-44">
                    <mxGeometry x="5" width="10" height="20" as="geometry"/>
                </mxCell>
                <mxCell id="4Z4fozLCSit868BE9nKC-47" value="Actor" style="shape=umlActor;verticalLabelPosition=bottom;verticalAlign=top;html=1;outlineConnect=0;" vertex="1" parent="1">
                    <mxGeometry x="185" y="135" width="10" height="20" as="geometry"/>
                </mxCell>
                <mxCell id="4Z4fozLCSit868BE9nKC-48" value="" style="endArrow=none;dashed=1;html=1;dashPattern=1 3;strokeWidth=2;" edge="1" parent="1" source="4Z4fozLCSit868BE9nKC-45" target="4Z4fozLCSit868BE9nKC-47">
                    <mxGeometry width="50" height="50" relative="1" as="geometry">
                        <mxPoint x="190" y="190" as="sourcePoint"/>
                        <mxPoint x="189.5" y="-10" as="targetPoint"/>
                    </mxGeometry>
                </mxCell>
                <mxCell id="4Z4fozLCSit868BE9nKC-49" value="db1f70a" style="text;html=1;align=center;verticalAlign=middle;whiteSpace=wrap;rounded=0;" vertex="1" parent="1">
                    <mxGeometry x="220" y="150" width="60" height="30" as="geometry"/>
                </mxCell>
                <mxCell id="4Z4fozLCSit868BE9nKC-50" value="Actor" style="shape=umlActor;verticalLabelPosition=bottom;verticalAlign=top;html=1;outlineConnect=0;" vertex="1" parent="1">
                    <mxGeometry x="185" y="90" width="10" height="20" as="geometry"/>
                </mxCell>
                <mxCell id="4Z4fozLCSit868BE9nKC-51" value="db1f70a" style="text;html=1;align=center;verticalAlign=middle;whiteSpace=wrap;rounded=0;" vertex="1" parent="1">
                    <mxGeometry x="220" y="100" width="60" height="30" as="geometry"/>
                </mxCell>
                <mxCell id="4Z4fozLCSit868BE9nKC-52" value="" style="group" vertex="1" connectable="0" parent="1">
                    <mxGeometry x="380" y="190" width="75" height="30" as="geometry"/>
                </mxCell>
                <mxCell id="4Z4fozLCSit868BE9nKC-53" value="" style="shape=step;perimeter=stepPerimeter;whiteSpace=wrap;html=1;fixedSize=1;" vertex="1" parent="4Z4fozLCSit868BE9nKC-52">
                    <mxGeometry width="75" height="30" as="geometry"/>
                </mxCell>
                <mxCell id="4Z4fozLCSit868BE9nKC-54" value="HEAD" style="text;html=1;align=center;verticalAlign=middle;whiteSpace=wrap;rounded=0;" vertex="1" parent="4Z4fozLCSit868BE9nKC-52">
                    <mxGeometry x="15" width="60" height="30" as="geometry"/>
                </mxCell>
                <mxCell id="4Z4fozLCSit868BE9nKC-55" value="" style="endArrow=none;dashed=1;html=1;dashPattern=1 3;strokeWidth=2;entryX=0;entryY=0;entryDx=0;entryDy=0;" edge="1" parent="1" target="4Z4fozLCSit868BE9nKC-21">
                    <mxGeometry width="50" height="50" relative="1" as="geometry">
                        <mxPoint x="470" y="20" as="sourcePoint"/>
                        <mxPoint x="410" y="170" as="targetPoint"/>
                    </mxGeometry>
                </mxCell>
                <mxCell id="4Z4fozLCSit868BE9nKC-57" value="" style="endArrow=none;dashed=1;html=1;dashPattern=1 3;strokeWidth=2;" edge="1" parent="1" target="4Z4fozLCSit868BE9nKC-56">
                    <mxGeometry width="50" height="50" relative="1" as="geometry">
                        <mxPoint x="469.9677419354839" y="145" as="sourcePoint"/>
                        <mxPoint x="469.5" as="targetPoint"/>
                    </mxGeometry>
                </mxCell>
                <mxCell id="4Z4fozLCSit868BE9nKC-56" value="" style="ellipse;whiteSpace=wrap;html=1;aspect=fixed;" vertex="1" parent="1">
                    <mxGeometry x="450" y="-10" width="40" height="40" as="geometry"/>
                </mxCell>
                <mxCell id="4Z4fozLCSit868BE9nKC-63" value="" style="group" vertex="1" connectable="0" parent="1">
                    <mxGeometry x="460" y="-3" width="20" height="25" as="geometry"/>
                </mxCell>
                <mxCell id="4Z4fozLCSit868BE9nKC-60" value="" style="ellipse;whiteSpace=wrap;html=1;aspect=fixed;" vertex="1" parent="4Z4fozLCSit868BE9nKC-63">
                    <mxGeometry width="10" height="10" as="geometry"/>
                </mxCell>
                <mxCell id="4Z4fozLCSit868BE9nKC-61" value="" style="ellipse;whiteSpace=wrap;html=1;aspect=fixed;" vertex="1" parent="4Z4fozLCSit868BE9nKC-63">
                    <mxGeometry x="10" y="10" width="10" height="10" as="geometry"/>
                </mxCell>
                <mxCell id="4Z4fozLCSit868BE9nKC-62" value="" style="ellipse;whiteSpace=wrap;html=1;aspect=fixed;" vertex="1" parent="4Z4fozLCSit868BE9nKC-63">
                    <mxGeometry y="15" width="10" height="10" as="geometry"/>
                </mxCell>
                <mxCell id="n-N40plK9yuBCOOpWixE-1" value="Actor" style="shape=umlActor;verticalLabelPosition=bottom;verticalAlign=top;html=1;outlineConnect=0;" vertex="1" parent="1">
                    <mxGeometry x="464" y="138" width="10" height="20" as="geometry"/>
                </mxCell>
                <mxCell id="n-N40plK9yuBCOOpWixE-2" value="Actor" style="shape=umlActor;verticalLabelPosition=bottom;verticalAlign=top;html=1;outlineConnect=0;" vertex="1" parent="1">
                    <mxGeometry x="464" y="93" width="10" height="20" as="geometry"/>
                </mxCell>
            </root>
        </mxGraphModel>
    </diagram>
</mxfile>